<svg version="1" xmlns="http://www.w3.org/2000/svg" width="933.333" height="933.333" viewBox="0 0 700.000000 700.000000"><path d="M60.9.4c-.2.2-1.7.6-3.4.9-6.1 1-12.1 3-18.7 6.3S22.1 18.5 18.9 22.5c-1 1.1-2.9 3.3-4.4 5-3 3.4-11.1 19.5-12 24-.4 1.6-1.1 5-1.5 7.5C.5 61.5.1 192.6.1 350.5c.1 320.4-.6 293.7 7.4 310 7.4 15 18.3 25.7 33.5 32.9 14.8 6.9-8.5 6.4 308.5 6.5 280.4.1 287.2 0 295.8-1.9 13.3-2.9 23.4-8.6 33.7-19 8.4-8.3 13-15.4 16.6-25.2 4.5-12.1 4.3.3 4.1-306.8l-.2-290.5-3.2-8.8C689.2 28.1 673.8 12 656 5.3 641.2-.3 665.2.1 350.9.1 191.7 0 61.2.2 60.9.4z"/></svg>