<svg version="1" xmlns="http://www.w3.org/2000/svg" width="933.333" height="933.333" viewBox="0 0 700.000000 700.000000"><path d="M48.5 77.2C24.4 80.3 5.4 98.1 1 121.9c-1.4 7.5-1.3 449.5.1 457.1.6 3 2.8 9.1 4.9 13.5 7.7 16.1 22.9 27.3 41 30.3 2.5.4 139.5.7 304.5.6 274.7-.1 300.5-.2 306.3-1.7 8.6-2.3 13.8-4.8 20.8-10.1 5.7-4.3 13.4-13.2 13.4-15.5 0-.6.3-1.1.8-1.1 1.1 0 5.1-10.7 6.2-16.9 1.4-7.7 1.3-450.9-.1-457.6-.6-2.8-2.8-8.7-5-13.1-6.9-14.6-20.8-25.7-36.9-29.5-4.4-1-63.8-1.3-304-1.3-164.2-.1-301.2.2-304.5.6z"/></svg>